<?xml version="1.0" standalone="no"?>
<!DOCTYPE svg PUBLIC "-//W3C//DTD SVG 20010904//EN"
 "http://www.w3.org/TR/2001/REC-SVG-20010904/DTD/svg10.dtd">
<svg version="1.0" xmlns="http://www.w3.org/2000/svg"
 width="532.000000pt" height="471.000000pt" viewBox="0 0 532.000000 471.000000"
 preserveAspectRatio="xMidYMid meet">

<g transform="translate(0.000000,471.000000) scale(0.100000,-0.100000)"
fill="#000000" stroke="none">
<path d="M2775 4460 c-144 -26 -196 -37 -230 -50 -50 -20 -208 -60 -236 -60
-15 0 -62 -12 -105 -26 -107 -35 -133 -47 -245 -107 -37 -19 -129 -90 -129
-99 0 -19 -24 -5 -63 35 -69 72 -205 168 -277 197 -19 7 -46 21 -60 31 -30 20
-89 46 -150 65 -119 37 -375 1 -489 -68 -54 -33 -157 -134 -217 -215 -55 -72
-134 -227 -134 -263 0 -10 -4 -21 -9 -24 -4 -3 -14 -47 -21 -98 -6 -51 -16
-118 -20 -149 -5 -31 -5 -72 0 -90 18 -71 31 -108 40 -114 6 -4 10 -15 10 -26
0 -10 4 -19 8 -19 4 0 20 -24 35 -52 26 -53 107 -136 186 -192 23 -17 41 -33
41 -38 0 -4 -12 -11 -28 -14 -26 -7 -244 -110 -287 -137 -128 -78 -168 -163
-130 -272 20 -55 38 -66 240 -139 33 -12 65 -25 72 -29 19 -12 184 -47 221
-47 39 0 41 -12 11 -90 -12 -30 -25 -64 -29 -75 -5 -11 -15 -40 -23 -65 -44
-137 -80 -239 -93 -267 -7 -17 -14 -35 -14 -41 0 -8 -41 -112 -70 -177 -22
-50 -120 -366 -129 -421 -21 -119 -10 -311 27 -456 12 -47 76 -179 113 -236
16 -24 29 -47 29 -52 0 -21 310 -317 344 -329 6 -2 18 -10 27 -18 50 -43 232
-122 361 -156 161 -43 298 -51 788 -44 245 3 463 11 485 16 22 5 83 14 135 20
92 10 140 19 335 62 128 28 203 48 260 69 28 10 74 26 103 34 29 8 65 22 80
30 15 8 50 23 78 35 130 52 282 132 394 208 25 17 55 33 67 37 11 4 24 13 27
21 3 8 12 15 21 15 19 0 151 132 190 190 17 25 32 47 35 50 10 10 69 136 86
185 10 28 21 55 26 61 4 6 24 76 44 155 34 135 36 151 31 254 -3 61 -14 145
-25 187 -10 43 -17 79 -15 82 4 4 31 -2 126 -27 87 -24 354 -51 419 -43 65 8
96 34 105 89 10 64 -35 137 -162 263 l-112 111 -7 133 c-7 131 -10 144 -55
220 -5 8 -19 51 -31 95 -42 151 -49 180 -56 208 -3 15 -10 30 -15 33 -5 3 -9
14 -9 24 0 11 -8 36 -17 57 -25 56 -93 195 -106 218 -7 11 -27 46 -46 78 -50
86 -131 206 -171 249 -8 9 -40 45 -70 80 -138 158 -361 359 -450 406 -44 23
-57 36 -77 82 -22 48 -110 150 -131 150 -6 0 -12 4 -12 9 0 27 -257 177 -388
227 -37 14 -76 30 -87 35 -36 15 -173 39 -222 38 -26 -1 -93 -9 -148 -19z
m305 -69 c134 -40 350 -134 350 -154 0 -12 -83 4 -110 22 -20 12 -49 16 -135
15 -110 -1 -132 -6 -245 -57 -116 -53 -337 -251 -408 -366 -9 -15 -33 -52 -53
-82 -31 -46 -71 -118 -101 -181 -4 -10 -8 -26 -8 -36 0 -9 -9 -42 -20 -72 -11
-30 -20 -67 -20 -82 0 -27 -2 -28 -52 -27 -94 1 -90 -7 -91 174 0 88 -2 127
-4 88 -2 -40 -8 -73 -13 -73 -6 0 -10 76 -11 188 -1 168 -2 182 -13 142 l-13
-45 -8 50 c-7 46 -9 48 -19 26 -10 -23 -10 -23 -22 10 -7 19 -13 26 -13 17 -1
-22 -19 -24 -27 -3 -4 8 -10 12 -15 9 -5 -3 -7 -10 -4 -15 4 -5 1 -9 -4 -9 -6
0 -11 5 -11 12 0 9 -3 9 -12 0 -20 -20 -28 -13 -14 13 22 42 108 139 160 181
27 21 56 46 66 54 107 90 339 181 535 210 44 6 87 13 95 15 33 8 179 -7 240
-24z m-1825 -6 l40 -19 -85 -7 c-167 -14 -206 -21 -285 -51 -44 -17 -103 -47
-131 -68 -66 -50 -171 -169 -219 -250 -60 -100 -83 -131 -89 -122 -6 11 24 92
56 149 41 73 81 138 95 151 7 7 18 21 25 30 7 10 45 45 83 78 58 51 85 66 160
92 121 41 118 41 220 38 64 -1 102 -7 130 -21z m955 -130 c0 -3 -18 -16 -41
-31 -46 -29 -209 -186 -209 -202 0 -5 -7 -16 -16 -23 -9 -7 -19 -22 -23 -32
-6 -16 -11 -13 -34 22 -33 49 -33 52 -4 78 12 11 29 29 37 40 26 33 108 84
194 119 82 34 96 38 96 29z m-925 -122 c22 -9 57 -16 77 -17 44 -3 39 2 66
-63 30 -70 31 -213 3 -299 -29 -88 -48 -129 -65 -144 -9 -7 -16 -18 -16 -25 0
-6 -9 -20 -20 -30 -11 -10 -20 -22 -20 -28 0 -10 -23 -33 -78 -75 -25 -19 -36
-22 -44 -14 -7 7 -31 12 -54 12 -24 0 -49 6 -56 13 -20 19 -87 49 -97 43 -11
-7 -81 59 -81 76 0 8 -4 18 -9 24 -5 5 -18 43 -30 84 l-21 74 21 44 c23 47 19
63 -11 44 -25 -15 -80 -16 -80 0 0 6 8 36 17 67 14 45 31 69 88 126 102 102
130 114 263 108 59 -3 125 -12 147 -20z m2330 -145 c65 -30 195 -112 265 -167
73 -57 240 -218 240 -231 0 -3 14 -19 30 -35 30 -29 38 -45 21 -45 -5 0 -13 9
-16 20 -3 11 -11 20 -16 20 -6 0 -22 14 -36 30 -13 17 -31 30 -38 30 -7 0 -15
7 -19 15 -3 8 -15 15 -26 15 -12 0 -20 7 -20 16 0 11 -6 15 -20 11 -16 -4 -20
0 -20 20 0 17 -4 23 -14 20 -9 -4 -16 3 -20 15 -4 18 -7 19 -20 8 -14 -11 -16
-9 -16 13 0 14 -7 28 -16 31 -13 5 -15 -1 -14 -32 3 -69 0 -122 -7 -122 -5 0
-7 37 -6 83 2 79 -9 132 -21 97 -2 -8 -7 -22 -9 -30 -3 -8 -6 6 -6 33 -1 50
-14 62 -26 25 l-8 -23 -4 23 c-3 13 -11 26 -19 29 -8 3 -12 8 -11 12 2 3 -4
14 -15 24 -16 15 -18 15 -18 1 0 -13 -3 -14 -15 -4 -8 7 -13 16 -10 20 3 5 1
11 -5 15 -5 3 -10 -1 -10 -9 0 -9 -4 -16 -10 -16 -5 0 -10 7 -10 15 0 8 -4 15
-10 15 -5 0 -7 8 -4 18 5 16 5 16 -6 -1 -8 -12 -10 -53 -5 -129 3 -62 8 -114
10 -116 2 -2 7 19 11 47 4 29 11 48 16 45 6 -4 8 -18 5 -33 -3 -14 -2 -42 2
-61 7 -33 8 -32 15 28 5 34 13 62 18 62 6 0 8 -10 5 -22 -3 -13 -2 -59 2 -103
l8 -80 2 80 c3 121 19 140 20 23 1 -53 6 -100 11 -103 6 -3 10 3 10 14 0 12 5
21 10 21 6 0 10 -27 10 -60 0 -74 15 -80 18 -7 1 28 6 66 12 82 6 21 8 -28 7
-153 -1 -100 1 -182 4 -182 3 0 9 60 13 132 4 73 10 136 15 141 10 10 5 -197
-14 -515 -4 -62 -2 -78 9 -78 8 0 14 6 13 13 -2 63 5 147 13 147 5 0 8 -34 7
-80 -1 -44 -6 -80 -10 -80 -5 0 -6 -4 -3 -9 9 -13 -32 -1 -44 14 -7 8 -7 54
-1 146 6 73 7 138 3 143 -11 18 -21 -63 -21 -176 -1 -60 -4 -108 -8 -108 -21
1 -157 43 -243 76 -19 7 -73 23 -119 35 -45 13 -85 28 -88 35 -9 25 78 169
146 241 21 22 -1 40 -33 25 -34 -15 -111 -119 -143 -192 -26 -60 -27 -62 -57
-55 -53 12 -98 23 -186 47 -80 22 -85 25 -87 52 -5 63 -49 96 -166 122 -78 18
-137 44 -101 44 12 0 25 7 28 16 4 10 13 14 24 10 14 -5 14 -3 -2 9 -17 13
-17 15 -4 15 9 0 19 9 23 19 3 10 15 21 25 24 12 3 20 14 20 26 0 14 6 21 19
21 13 0 21 8 23 23 2 12 10 22 18 22 8 0 16 9 18 20 5 27 22 46 34 39 5 -3 12
3 15 15 6 25 23 28 24 4 1 -10 4 -4 8 12 5 20 12 30 24 29 12 -1 20 7 24 27 6
34 23 39 23 7 0 -27 13 -15 15 15 1 14 8 22 21 22 10 0 20 8 22 18 2 11 9 16
18 13 9 -4 19 4 26 22 9 21 12 23 15 10 6 -24 23 -23 23 0 0 26 11 34 26 21
11 -9 15 -7 20 5 6 15 7 15 19 0 11 -15 13 -14 20 12 l7 29 10 -25 10 -25 9
23 c9 24 29 30 29 10 0 -7 5 -5 11 5 8 14 14 15 24 7 10 -8 16 -7 23 6 9 15
10 15 17 -6 l7 -23 13 24 13 24 9 -35 10 -35 14 40 14 40 6 -45 6 -45 8 33
c11 47 25 49 25 3 0 -65 18 -57 22 10 2 40 -1 64 -9 71 -10 8 -13 5 -13 -11 0
-11 -4 -21 -9 -21 -5 0 -9 16 -8 35 2 39 6 39 82 3z m53 -143 c0 -19 -4 -35
-9 -35 -5 0 -9 18 -9 41 0 22 4 38 9 35 5 -3 9 -22 9 -41z m35 -5 c3 -11 1
-23 -4 -26 -5 -3 -9 6 -9 20 0 31 6 34 13 6z m34 -37 c-3 -10 -5 -4 -5 12 0
17 2 24 5 18 2 -7 2 -21 0 -30z m80 -105 c-2 -13 -4 -5 -4 17 -1 22 1 32 4 23
2 -10 2 -28 0 -40z m87 -3 c-4 -8 -10 -12 -15 -9 -11 6 -2 24 11 24 5 0 7 -7
4 -15z m41 -14 c3 -5 1 -12 -5 -16 -5 -3 -10 1 -10 9 0 18 6 21 15 7z m-53
-93 c-6 -6 -11 -1 -15 11 -3 12 -1 21 5 21 5 0 6 5 3 10 -4 6 -3 19 1 28 6 12
9 7 12 -22 2 -21 -1 -43 -6 -48z m75 -5 c-3 -10 -5 -4 -5 12 0 17 2 24 5 18 2
-7 2 -21 0 -30z m-77 -153 c0 -73 -4 -120 -10 -120 -5 0 -10 24 -10 53 0 60
11 187 16 187 2 0 4 -54 4 -120z m39 0 c-1 -61 -6 -113 -10 -116 -5 -3 -7 32
-5 78 2 46 4 98 5 116 1 17 3 32 7 32 3 0 4 -50 3 -110z m-2530 59 c-10 -6
-11 -9 -1 -9 6 0 12 -7 12 -15 0 -8 -4 -15 -10 -15 -5 0 -10 -4 -10 -10 0 -8
-28 -37 -129 -130 -27 -25 -66 -42 -102 -45 -19 -1 -73 -6 -121 -10 -49 -4
-88 -5 -88 -2 0 3 35 13 77 22 132 30 269 111 348 208 11 14 24 22 29 20 4 -3
2 -9 -5 -14z m2811 -4 c14 -19 14 -19 -2 -6 -10 7 -18 18 -18 24 0 6 1 8 3 6
1 -2 9 -13 17 -24z m40 -40 c7 -8 8 -15 2 -15 -5 0 -15 7 -22 15 -7 8 -8 15
-2 15 5 0 15 -7 22 -15z m81 -110 c56 -73 118 -168 138 -212 5 -11 14 -24 19
-27 14 -9 82 -142 82 -160 0 -9 4 -16 9 -16 5 0 12 -12 16 -27 3 -16 12 -41
19 -58 28 -67 38 -108 31 -141 -6 -37 -25 -37 -25 -1 0 12 -9 39 -20 60 -11
20 -20 44 -20 52 0 8 -6 29 -14 47 -8 18 -21 48 -28 66 -7 17 -16 32 -20 32
-5 0 -8 7 -8 16 0 14 -48 115 -103 219 -33 61 -131 205 -139 205 -5 0 -8 8 -8
18 1 19 -6 27 71 -73z m-2047 -50 c44 -5 51 -9 42 -24 -5 -7 -15 -7 -32 -1
-14 6 -40 10 -58 10 -17 0 -36 4 -41 9 -6 5 -21 12 -35 14 -26 5 54 -1 124 -8z
m1597 -82 c-8 -34 -9 -31 -9 32 0 59 1 65 9 38 5 -18 5 -47 0 -70z m40 5 c-1
-46 -6 -99 -11 -118 -8 -31 -9 -28 -5 20 3 30 5 86 5 124 0 38 3 66 6 63 4 -3
6 -44 5 -89z m38 55 c0 -33 -1 -35 -9 -15 -8 20 -4 52 6 52 2 0 4 -17 3 -37z
m-12 -120 c-2 -16 -4 -3 -4 27 0 30 2 43 4 28 2 -16 2 -40 0 -55z m-1477 2
c18 -6 21 -13 18 -53 -3 -44 -5 -46 -32 -46 l-30 0 -2 83 c-1 77 0 81 11 53 7
-16 23 -33 35 -37z m-70 -129 c-13 -13 -13 -93 -1 -101 18 -10 8 -45 -12 -45
-14 0 -17 3 -10 13 5 6 6 23 2 37 l-7 25 -1 -27 c-1 -16 -5 -28 -9 -28 -5 0
-5 24 0 53 5 28 11 69 13 90 3 21 10 47 15 57 6 10 11 31 12 47 1 15 4 -3 5
-41 2 -40 0 -73 -7 -80z m165 127 c-2 -10 -5 -36 -6 -58 -2 -40 -2 -40 -8 10
-7 53 -5 65 9 65 4 0 7 -8 5 -17z m528 -22 c29 -10 79 -24 112 -31 33 -7 69
-16 80 -20 11 -5 38 -14 60 -21 22 -6 47 -14 55 -17 8 -3 17 -6 20 -7 3 0 35
-11 72 -23 37 -12 76 -22 88 -22 11 0 20 -4 20 -9 0 -4 21 -14 48 -21 26 -7
51 -17 56 -21 6 -5 20 -9 33 -9 13 0 23 -4 23 -10 0 -5 7 -10 16 -10 8 0 13
-4 10 -9 -7 -10 -79 -3 -114 11 -15 6 -29 12 -32 13 -67 20 -84 23 -91 19 -4
-2 -10 -1 -13 4 -2 4 -19 9 -37 10 -18 2 -36 8 -40 14 -4 6 -12 7 -18 3 -7 -4
-18 -1 -26 5 -8 6 -19 9 -25 5 -5 -3 -10 -2 -10 4 0 5 -18 8 -40 6 -23 -2 -40
1 -40 7 0 5 -7 8 -15 5 -8 -4 -17 -2 -20 3 -3 4 -22 7 -43 5 -20 -1 -40 2 -44
9 -6 8 -10 7 -17 -3 -6 -9 -11 -10 -15 -3 -4 6 -14 8 -22 5 -9 -3 -20 0 -25 8
-6 9 -12 10 -16 4 -12 -15 -63 -15 -63 0 0 7 -13 15 -30 17 -16 3 -30 0 -30
-5 0 -5 -6 -4 -13 2 -8 6 -17 7 -22 3 -4 -4 -5 6 -1 22 4 15 10 42 13 58 6 30
7 30 55 24 27 -4 73 -15 101 -25z m-565 -41 c-3 -71 -15 -67 -20 8 -2 37 1 52
10 52 9 0 12 -17 10 -60z m1459 -62 c-2 -24 -4 -5 -4 42 0 47 2 66 4 43 2 -24
2 -62 0 -85z m-39 32 c-1 -32 -5 -57 -9 -54 -5 3 -7 19 -5 37 3 18 5 42 5 55
1 12 3 22 5 22 3 0 4 -27 4 -60z m-1351 28 c-3 -8 -6 -5 -6 6 -1 11 2 17 5 13
3 -3 4 -12 1 -19z m53 13 c0 -6 -4 -13 -10 -16 -5 -3 -10 1 -10 9 0 9 5 16 10
16 6 0 10 -4 10 -9z m-1685 -78 c33 -13 47 -21 30 -19 -27 5 -28 4 -8 -5 12
-6 23 -19 26 -30 3 -12 27 -24 78 -39 41 -12 81 -24 89 -27 24 -9 114 -10 127
0 6 4 14 3 18 -3 3 -6 11 -7 17 -4 17 11 139 14 133 4 -8 -12 -3 -12 29 0 17
6 26 6 26 0 0 -6 5 -10 11 -10 5 0 7 5 3 11 -4 7 1 7 16 -1 18 -9 24 -9 30 0
5 8 10 9 14 2 4 -6 22 -10 42 -8 19 1 37 0 39 -4 2 -3 27 -6 54 -6 28 1 51 -3
51 -8 0 -4 8 -5 17 -2 9 4 20 1 25 -6 6 -11 10 -10 17 1 6 9 11 10 15 3 4 -6
13 -9 20 -6 8 3 17 0 21 -6 6 -9 10 -9 16 1 8 12 10 12 18 0 6 -9 10 -10 16
-2 5 9 10 9 20 1 8 -7 19 -9 25 -5 5 3 13 -1 16 -10 5 -13 9 -14 15 -4 5 9 11
10 21 2 7 -6 35 -13 62 -15 28 -3 52 -10 54 -16 2 -6 10 -8 18 -5 8 3 14 0 14
-7 0 -7 7 -10 16 -6 9 3 21 3 27 -1 7 -4 25 -8 40 -8 15 0 31 -5 35 -10 4 -6
29 -11 55 -12 26 -1 54 -7 62 -13 12 -10 15 -9 15 4 0 20 16 21 24 1 3 -8 13
-15 23 -15 15 0 16 2 3 10 -10 7 -11 10 -2 10 7 0 15 -7 18 -15 4 -8 10 -12
15 -9 5 3 6 11 2 17 -4 7 1 5 11 -3 10 -8 25 -16 35 -17 55 -11 89 -16 109
-15 12 0 22 -3 22 -7 0 -4 17 -8 37 -9 20 -1 40 -7 45 -14 6 -10 8 -10 8 0 0
6 7 12 15 12 8 0 15 -5 15 -11 0 -8 5 -8 15 1 12 10 16 9 21 -5 5 -13 9 -14
15 -3 7 11 11 10 18 -1 8 -12 12 -12 24 -2 11 8 17 9 22 1 5 -8 10 -8 20 0 9
8 15 8 20 0 3 -5 24 -10 46 -10 24 0 39 -5 39 -12 0 -9 4 -8 10 2 9 13 12 12
21 -4 9 -15 13 -16 20 -5 8 12 11 12 19 -1 8 -13 11 -13 19 -1 7 11 11 10 20
-5 10 -15 13 -16 18 -5 4 11 10 8 24 -10 15 -20 19 -21 19 -6 0 9 5 17 10 17
6 0 10 -10 10 -21 0 -18 2 -20 16 -8 13 10 17 10 24 0 4 -8 12 -11 18 -7 6 3
14 1 17 -5 4 -5 13 -8 21 -5 7 3 18 -3 24 -12 8 -12 13 -14 16 -4 9 20 24 14
24 -10 l1 -23 13 24 c13 23 13 23 19 2 3 -14 10 -19 21 -15 11 4 19 -2 25 -17
7 -18 10 -19 10 -6 1 24 16 21 29 -5 9 -19 11 -20 11 -5 1 28 21 9 22 -21 1
-17 3 -21 6 -9 5 21 33 23 33 2 0 -21 18 -19 23 3 2 10 7 2 11 -20 9 -42 25
-51 27 -15 0 12 7 0 14 -28 9 -37 13 -43 14 -22 0 15 6 27 11 27 6 0 9 -3 9
-7 -1 -5 -1 -19 0 -33 1 -20 3 -22 11 -10 9 13 11 13 20 0 21 -32 3 -34 -70
-10 -14 4 -47 14 -75 21 -27 6 -54 16 -59 20 -6 5 -25 9 -42 9 -18 0 -36 5
-39 10 -3 6 -18 10 -32 10 -15 0 -52 8 -82 19 -31 10 -76 24 -101 31 -25 7
-72 21 -105 31 -155 47 -479 113 -680 139 -38 5 -97 14 -130 20 -183 35 -806
80 -1102 80 -148 0 -234 4 -238 10 -4 7 -74 10 -195 8 -103 -2 -186 -6 -184
-9 2 -3 -28 -9 -66 -12 -38 -3 -80 -13 -94 -23 -14 -9 -26 -12 -26 -6 0 5 19
20 43 32 32 16 36 20 17 18 -14 -1 -31 1 -37 5 -9 6 -13 2 -13 -10 0 -14 -9
-18 -36 -20 -33 -2 -34 0 -18 12 11 7 16 17 11 21 -4 4 -18 -3 -32 -16 l-25
-24 6 35 c8 42 7 41 74 75 30 15 62 32 70 39 8 6 40 19 70 29 30 10 78 32 106
47 28 16 60 29 70 30 11 0 42 11 69 24 55 25 69 24 160 -12z m2945 27 c0 -5
-4 -10 -10 -10 -5 0 -10 5 -10 10 0 6 5 10 10 10 6 0 10 -4 10 -10z m118 -50
c-1 -18 -8 -30 -16 -30 -7 0 -11 6 -8 13 3 6 9 20 12 30 9 26 15 21 12 -13z
m-118 5 c0 -9 9 -15 25 -15 18 0 23 -4 18 -16 -4 -11 -9 -12 -16 -5 -6 6 -18
11 -27 11 -9 0 -16 9 -17 20 -1 11 2 20 8 20 5 0 9 -7 9 -15z m3 -42 c-7 -2
-19 -2 -25 0 -7 3 -2 5 12 5 14 0 19 -2 13 -5z m67 -8 c-7 -8 -22 -14 -34 -14
-20 2 -20 2 2 6 12 2 22 9 22 14 0 5 5 9 11 9 8 0 8 -5 -1 -15z m-2347 -315
c23 0 67 -47 61 -64 -3 -7 4 -21 16 -31 11 -10 20 -24 20 -32 0 -7 5 -13 10
-13 6 0 16 -11 22 -25 6 -14 18 -25 25 -25 8 0 12 -4 8 -9 -3 -5 1 -15 8 -23
20 -19 42 -61 39 -74 -1 -7 6 -14 17 -17 19 -5 35 9 66 57 10 14 21 23 26 20
5 -3 9 1 9 8 1 15 80 78 98 78 7 0 12 5 12 10 0 6 9 10 20 10 11 0 20 7 20 15
0 8 5 15 11 15 6 0 27 12 46 28 34 25 43 27 127 27 93 0 216 -21 216 -36 0 -5
7 -9 15 -9 9 0 27 -8 41 -17 14 -9 42 -18 62 -20 20 -2 41 -8 47 -13 7 -6 15
-7 18 -4 3 4 9 -6 13 -21 5 -20 9 -23 15 -13 7 11 11 10 19 -2 5 -8 15 -15 22
-15 9 0 14 -19 16 -57 3 -59 22 -83 22 -28 0 17 5 30 10 30 6 0 10 -19 10 -42
l1 -43 14 30 c7 17 14 27 15 23 4 -14 7 -28 9 -35 0 -4 7 2 15 12 13 18 14 18
20 -2 4 -11 16 -23 28 -26 15 -4 19 -11 15 -27 -4 -17 -2 -20 14 -15 14 5 22
0 28 -17 l10 -23 0 23 c1 24 16 30 25 10 5 -10 7 -10 12 0 10 21 24 2 24 -34
0 -19 5 -34 10 -34 6 0 10 5 10 11 0 5 5 7 10 4 6 -4 8 -11 5 -16 -3 -5 1 -6
10 -2 10 3 21 0 26 -8 8 -12 11 -11 20 4 10 18 11 18 25 0 8 -11 13 -13 14 -5
0 21 18 13 23 -10 l4 -23 8 23 c9 26 25 29 25 5 1 -16 2 -16 15 1 14 19 15 18
24 -5 l10 -24 7 24 7 23 13 -23 14 -24 6 24 c7 24 7 24 15 3 5 -13 14 -20 23
-16 8 3 17 0 21 -6 5 -8 10 -8 20 0 8 6 16 7 19 2 3 -5 21 -8 41 -6 19 1 35
-1 35 -6 0 -4 9 -6 20 -3 11 3 20 1 20 -5 0 -6 9 -8 20 -5 13 3 20 0 20 -8 0
-11 2 -11 9 0 8 12 12 12 25 2 12 -11 16 -11 16 -1 0 9 3 10 13 1 8 -6 38 -15
68 -20 30 -5 46 -9 37 -10 -10 0 -18 -5 -18 -11 0 -5 8 -11 18 -11 14 -1 13
-2 -3 -7 l-20 -5 20 -8 c17 -6 17 -8 3 -8 -10 -1 -18 -5 -18 -11 0 -5 7 -7 15
-4 11 5 15 -1 15 -20 0 -14 5 -26 10 -26 6 0 10 5 10 12 0 7 5 6 13 -4 6 -9
25 -19 41 -22 16 -4 30 -15 33 -27 3 -12 11 -18 19 -15 8 3 14 1 14 -4 0 -6 9
-10 19 -10 11 0 21 -4 23 -10 2 -5 19 -11 38 -13 19 -2 36 -9 38 -16 2 -6 7
-9 12 -6 4 3 21 -2 36 -10 16 -8 37 -15 46 -15 9 0 19 -6 22 -12 5 -10 7 -10
12 1 5 11 10 8 20 -10 7 -13 13 -18 14 -11 0 21 20 3 20 -19 0 -10 5 -19 10
-19 6 0 10 8 10 17 0 9 3 14 6 10 10 -9 -7 -217 -17 -211 -5 3 -10 15 -10 27
-1 12 -5 4 -10 -18 -10 -48 -22 -212 -15 -205 5 6 14 54 15 88 1 12 6 22 11
22 6 0 9 -15 7 -32 -2 -18 0 -46 4 -63 5 -25 7 -26 8 -7 1 14 6 22 14 19 6 -2
11 -14 9 -27 -2 -14 0 -20 7 -16 6 4 11 18 11 32 0 13 5 24 10 24 6 0 11 -28
11 -62 1 -35 3 -55 6 -45 5 18 23 24 23 8 0 -21 -13 -41 -26 -41 -8 0 -14 -9
-14 -20 0 -10 -9 -24 -19 -30 -11 -5 -22 -24 -26 -40 -6 -25 -9 -29 -21 -19
-11 9 -14 7 -14 -9 0 -32 -10 -51 -25 -46 -7 3 -15 -6 -20 -23 -4 -15 -10 -22
-12 -15 -9 24 -22 1 -29 -51 l-7 -52 -12 35 c-11 33 -12 34 -18 10 -4 -14 -7
-50 -8 -80 0 -30 -4 -66 -8 -80 l-7 -25 -7 25 c-3 13 -4 51 -2 85 3 44 0 36
-9 -30 -7 -49 -14 -92 -15 -95 -1 -3 -8 6 -15 19 -13 23 -13 22 -20 -20 -7
-40 -9 -42 -21 -26 -12 16 -14 9 -21 -60 l-8 -78 -12 40 -12 40 -2 -35 c-3
-53 -14 -87 -24 -72 -4 7 -5 21 -1 30 5 13 4 14 -6 5 -7 -7 -14 -37 -17 -67
-2 -31 -9 -53 -14 -50 -5 3 -6 14 -3 23 3 10 2 29 -3 42 -7 19 -10 12 -16 -39
-4 -34 -12 -62 -18 -62 -5 0 -8 7 -4 15 3 8 1 25 -4 37 -7 19 -9 16 -9 -19 -1
-28 3 -43 11 -43 19 0 -93 -78 -122 -85 -14 -4 -31 -12 -39 -18 -12 -10 -69
-34 -96 -40 -5 -2 -17 -7 -25 -12 -16 -10 -199 -75 -285 -102 -104 -31 -312
-70 -505 -93 -41 -5 -136 -16 -210 -25 -196 -24 -747 -25 -925 -2 -71 9 -155
24 -185 33 -109 32 -146 43 -185 58 -49 18 -154 73 -176 92 -8 8 -21 14 -27
14 -7 0 -12 5 -12 10 0 6 -5 10 -12 10 -13 0 -248 238 -248 251 0 5 -8 18 -18
29 -23 27 -57 84 -83 140 -50 109 -59 132 -59 158 0 16 -4 32 -9 38 -14 14
-31 156 -31 252 1 183 52 396 160 657 23 55 51 129 62 165 21 69 53 152 71
185 6 11 19 34 28 52 15 30 34 37 23 8 -3 -7 2 -15 11 -19 9 -3 13 -2 10 4 -3
5 -1 18 4 27 6 10 11 12 11 6 0 -26 20 -12 20 15 l1 27 14 -25 14 -25 1 33 c0
18 4 31 9 28 5 -3 11 1 15 9 3 8 12 12 21 9 10 -4 15 0 15 10 0 19 26 22 33 4
3 -7 6 1 7 17 1 17 4 25 6 18 4 -8 16 -6 42 9 70 40 92 49 102 43 5 -3 10 -1
10 4 0 6 9 11 19 11 11 0 23 5 26 10 4 6 10 8 15 5 5 -3 12 0 17 7 4 7 20 19
36 27 30 16 34 36 12 65 -23 30 -19 35 38 38 44 3 87 2 230 -2z m3123 -297 l3
-78 -13 75 c-7 41 -17 84 -21 95 -7 19 -7 19 10 3 14 -13 19 -35 21 -95z m42
-273 c17 -16 32 -30 35 -30 8 0 87 -79 87 -87 0 -5 9 -14 20 -21 11 -6 29 -31
41 -54 12 -24 28 -51 37 -60 14 -17 13 -18 -21 -18 -35 0 -44 9 -38 43 1 4 -8
17 -18 28 -11 12 -17 27 -14 35 3 8 -1 14 -11 14 -9 0 -16 4 -16 9 0 5 -27 37
-60 70 -33 34 -60 65 -60 71 0 5 -7 10 -15 10 -8 0 -15 5 -15 10 0 18 18 11
48 -20z m-578 -542 c0 -19 -2 -20 -10 -8 -13 19 -13 30 0 30 6 0 10 -10 10
-22z m27 -75 c-3 -10 -5 -4 -5 12 0 17 2 24 5 18 2 -7 2 -21 0 -30z"/>
<path d="M2181 3764 c0 -11 3 -14 6 -6 3 7 2 16 -1 19 -3 4 -6 -2 -5 -13z"/>
<path d="M3588 3968 c-6 -46 4 -193 12 -173 12 28 12 183 1 190 -5 3 -11 -5
-13 -17z"/>
<path d="M3552 3820 c0 -14 2 -19 5 -12 2 6 2 18 0 25 -3 6 -5 1 -5 -13z"/>
<path d="M3745 3560 c3 -5 8 -10 11 -10 2 0 4 5 4 10 0 6 -5 10 -11 10 -5 0
-7 -4 -4 -10z"/>
<path d="M2450 3099 c0 -24 4 -38 10 -34 6 3 10 22 10 41 0 19 -4 34 -10 34
-5 0 -10 -18 -10 -41z"/>
<path d="M1510 2368 c0 -8 -15 -14 -38 -15 -75 -4 -187 -54 -229 -102 -13 -14
-33 -46 -44 -71 -12 -25 -26 -53 -31 -62 -11 -24 -10 -65 2 -73 6 -3 10 -13
10 -22 0 -25 61 -108 98 -133 32 -22 42 -40 22 -40 -20 0 -81 -61 -148 -145
-106 -136 -181 -359 -154 -460 16 -59 66 -142 113 -187 24 -24 39 -47 39 -62
0 -14 5 -28 10 -31 6 -3 10 -16 10 -29 0 -12 9 -32 20 -44 11 -12 20 -24 20
-27 0 -18 136 -125 159 -125 28 0 5 43 -58 107 -38 39 -74 80 -80 91 -14 27
-14 79 0 88 16 9 329 5 418 -7 41 -5 85 -16 97 -24 13 -8 32 -15 42 -15 10 0
22 -4 28 -10 20 -20 165 -31 264 -19 52 6 99 15 104 20 6 5 20 9 32 9 13 0 26
5 30 11 10 17 -16 57 -41 61 -12 3 -105 1 -206 -4 -168 -7 -186 -6 -209 10
-56 39 -152 71 -260 86 l-75 11 0 38 c0 38 1 39 54 58 30 10 57 23 61 29 3 5
27 21 54 34 123 62 239 226 216 307 -14 48 -47 91 -94 120 -38 24 -59 30 -170
46 -21 3 -73 0 -115 -6 -129 -18 -171 -21 -171 -13 0 4 19 18 42 32 22 14 46
30 52 35 6 6 27 22 46 35 19 13 40 29 47 35 7 5 27 21 45 35 50 38 129 122
139 149 5 12 11 54 13 92 l4 70 -49 50 c-31 32 -59 52 -76 54 -16 1 -27 8 -25
14 1 6 -2 11 -8 11 -5 0 -10 -6 -10 -12z m-146 -175 c-14 -22 -19 -47 -19
-113 0 -72 4 -91 24 -123 22 -36 22 -40 7 -55 -15 -15 -19 -12 -59 31 -43 45
-97 136 -97 161 0 16 87 98 120 113 39 18 44 15 24 -14z m223 -95 c-2 -13 -4
-5 -4 17 -1 22 1 32 4 23 2 -10 2 -28 0 -40z m-2 -376 l30 -3 -25 -14 c-18
-10 -58 -14 -140 -14 -63 0 -108 3 -100 6 8 2 24 9 35 13 28 13 114 18 200 12z
m-300 -52 c-27 -12 -35 -12 -35 0 0 6 12 10 28 9 24 0 25 -1 7 -9z m-105 -130
c0 -19 53 -121 91 -177 16 -23 29 -46 29 -51 0 -11 67 -72 79 -72 6 0 7 -50 2
-91 -2 -11 -149 -31 -180 -24 -31 7 -111 72 -111 91 0 5 -9 20 -20 34 -11 14
-20 39 -20 55 0 53 64 248 92 282 10 12 14 10 24 -9 8 -13 13 -30 14 -38z"/>
<path d="M2666 2343 c-6 -14 -5 -15 5 -6 7 7 10 15 7 18 -3 3 -9 -2 -12 -12z"/>
<path d="M2746 2335 c4 -8 8 -15 10 -15 2 0 4 7 4 15 0 8 -4 15 -10 15 -5 0
-7 -7 -4 -15z"/>
<path d="M2512 2302 c4 -16 -12 -42 -27 -42 -21 0 -144 -126 -151 -157 -4 -12
-10 -23 -15 -23 -5 0 -9 -11 -9 -25 0 -14 -4 -25 -10 -25 -5 0 -10 -11 -10
-24 0 -14 5 -28 10 -31 6 -3 10 -14 10 -22 0 -26 43 -83 68 -89 12 -4 22 -10
22 -15 0 -5 8 -9 18 -9 11 0 45 -9 78 -21 98 -34 178 -22 299 43 11 6 51 52
88 102 59 78 68 95 63 123 -2 17 -13 40 -23 51 -10 10 -38 42 -63 70 -24 29
-48 52 -53 52 -4 0 -17 9 -29 20 -12 11 -30 20 -39 20 -10 0 -20 4 -23 9 -3 4
-17 7 -31 6 -34 -4 -103 -15 -139 -22 -24 -4 -28 -2 -23 11 4 9 1 16 -4 16 -6
0 -9 -8 -7 -18z m-46 -254 c0 -40 4 -86 8 -102 7 -27 6 -28 -20 -22 -35 9 -84
46 -84 64 0 8 13 31 29 51 15 20 33 46 40 59 20 38 27 25 27 -50z m371 10 c-3
-7 -5 -2 -5 12 0 14 2 19 5 13 2 -7 2 -19 0 -25z"/>
<path d="M2476 2301 c-4 -7 -5 -15 -2 -18 9 -9 19 4 14 18 -4 11 -6 11 -12 0z"/>
<path d="M2780 2300 c0 -5 5 -10 11 -10 5 0 7 5 4 10 -3 6 -8 10 -11 10 -2 0
-4 -4 -4 -10z"/>
<path d="M2815 2280 c-3 -5 -1 -10 4 -10 6 0 11 5 11 10 0 6 -2 10 -4 10 -3 0
-8 -4 -11 -10z"/>
<path d="M2855 2240 c3 -5 8 -10 11 -10 2 0 4 5 4 10 0 6 -5 10 -11 10 -5 0
-7 -4 -4 -10z"/>
<path d="M4151 1474 c0 -11 3 -14 6 -6 3 7 2 16 -1 19 -3 4 -6 -2 -5 -13z"/>
<path d="M3750 531 c0 -16 5 -33 10 -36 6 -4 10 6 10 24 0 16 -4 33 -10 36 -6
4 -10 -6 -10 -24z"/>
</g>
</svg>
